<svg width="230" height="230" viewBox="0 0 230 230" fill="none" xmlns="http://www.w3.org/2000/svg">
<path fill-rule="evenodd" clip-rule="evenodd" d="M229.058 100.215C229.512 103.749 229.805 107.334 229.93 110.961L119.039 0.069604C122.666 0.194803 126.251 0.48797 129.785 0.941569L229.058 100.215ZM115 0C115.863 0 116.725 0.00951662 117.584 0.0284507L229.972 112.416C229.99 113.275 230 114.137 230 115C230 117.784 229.901 120.545 229.707 123.279L106.721 0.293462C109.455 0.0989285 112.216 0 115 0ZM226.371 143.774C227.057 141.111 227.65 138.41 228.146 135.676L94.3243 1.85359C91.5899 2.35 88.8892 2.9431 86.2259 3.62921L226.371 143.774ZM85.1062 3.92373C82.2301 4.69585 79.3985 5.57671 76.6161 6.56162L223.438 153.384C224.423 150.602 225.304 147.77 226.076 144.894L85.1062 3.92373ZM168.539 13.1964C189.095 24.0292 205.971 40.9055 216.804 61.4615L168.539 13.1964ZM165.658 11.7298C159.844 8.87256 153.754 6.49183 147.438 4.63849L225.362 82.5618C223.508 76.2461 221.127 70.156 218.27 64.3423L165.658 11.7298ZM225.922 84.5361C227.175 89.1096 228.153 93.7969 228.837 98.5791L131.421 1.16351C136.203 1.84722 140.89 2.82514 145.464 4.07835L225.922 84.5361ZM229.606 124.593C229.33 127.929 228.912 131.224 228.358 134.473L95.5268 1.64189C98.7759 1.08774 102.071 0.669876 105.407 0.394396L229.606 124.593ZM75.5758 6.93554C68.2091 9.62376 61.1944 13.0438 54.6198 17.1076L212.892 175.38C216.956 168.806 220.376 161.791 223.064 154.424L75.5758 6.93554ZM212.349 176.251L53.7492 17.6512C51.7409 18.9174 49.7746 20.2441 47.8527 21.6286L208.371 182.147C209.756 180.225 211.083 178.259 212.349 176.251ZM207.776 182.966L47.0339 22.224C44.9022 23.7882 42.8265 25.4242 40.8102 27.1283L202.872 189.19C204.576 187.174 206.212 185.098 207.776 182.966ZM121.823 229.801C125.229 229.602 128.595 229.254 131.915 228.765L1.23518 98.0855C0.745806 101.405 0.398305 104.771 0.199033 108.177L121.823 229.801ZM120.479 229.872L0.12823 109.521C0.0430615 111.337 0 113.163 0 115C0 116.456 0.0270406 117.905 0.0806469 119.347L110.653 229.919C112.095 229.973 113.544 230 115 230C116.837 230 118.663 229.957 120.479 229.872ZM109.174 229.855L0.145002 120.826C0.35478 125.03 0.790356 129.175 1.43985 133.249L96.7513 228.56C100.825 229.21 104.97 229.645 109.174 229.855ZM95.0533 228.276C90.0261 227.397 85.1111 226.192 80.331 224.682L5.31795 149.669C3.80846 144.889 2.60282 139.974 1.72367 134.947L95.0533 228.276ZM78.2313 223.997L6.00343 151.769C8.38723 158.838 11.4395 165.599 15.085 171.978L58.0217 214.915C64.4006 218.561 71.1622 221.613 78.2313 223.997ZM17.1644 175.472C26.5542 190.631 39.3689 203.446 54.5281 212.836L17.1644 175.472ZM1.42276 96.8588L133.141 228.577C136.273 228.081 139.364 227.458 142.406 226.714L3.2858 87.5938C2.54193 90.6365 1.91912 93.7266 1.42276 96.8588ZM3.56856 86.4624L143.538 226.431C146.119 225.772 148.666 225.026 151.175 224.195L5.80504 78.825C4.9744 81.3336 4.22779 83.8805 3.56856 86.4624ZM6.16115 77.7669C7.09359 75.0405 8.1256 72.3603 9.25283 69.7306L160.269 220.747C157.64 221.874 154.96 222.906 152.233 223.839L6.16115 77.7669ZM9.681 68.7445L161.255 220.319C163.805 219.198 166.306 217.987 168.754 216.69L13.3104 61.2458C12.0134 63.6942 10.8023 66.1952 9.681 68.7445ZM13.8036 60.3248C14.9517 58.2043 16.1645 56.1241 17.4393 54.0866L175.913 212.561C173.876 213.836 171.796 215.048 169.675 216.196L13.8036 60.3248ZM17.9869 53.22C19.4239 50.9681 20.9372 48.7696 22.5231 46.6281L183.372 207.477C181.23 209.063 179.032 210.576 176.78 212.013L17.9869 53.22ZM23.128 45.8188L184.181 206.872C186.289 205.282 188.34 203.622 190.331 201.894L28.1059 39.6686C26.3781 41.6599 24.7176 43.7111 23.128 45.8188ZM28.7659 38.9145L191.086 201.234C192.832 199.692 194.531 198.098 196.18 196.455L33.5455 33.8202C31.9017 35.4695 30.3077 37.1684 28.7659 38.9145ZM34.2544 33.115C36.1236 31.2717 38.0555 29.4919 40.0468 27.7791L202.221 189.953C200.508 191.944 198.728 193.876 196.885 195.746L34.2544 33.115Z" fill="url(#paint0_linear_37_196)" fill-opacity="0.4"/>
<defs>
<linearGradient id="paint0_linear_37_196" x1="46.4035" y1="25.2193" x2="180.57" y2="209.32" gradientUnits="userSpaceOnUse">
<stop stop-color="#ED7B50"/>
<stop offset="0.541667" stop-color="#488AEA"/>
<stop offset="1" stop-color="#2C2C2C"/>
</linearGradient>
</defs>
</svg>
